<svg width="143" height="51" viewBox="0 0 143 51" fill="none" xmlns="http://www.w3.org/2000/svg">
<path d="M10.089 49.256V39.464H18.793C20.969 39.464 22.9317 39.144 24.681 38.504C26.4303 37.8213 27.9237 36.8827 29.161 35.688C30.3983 34.4507 31.337 32.9787 31.977 31.272C32.617 29.5227 32.937 27.6027 32.937 25.512C32.937 23.336 32.617 21.3947 31.977 19.688C31.337 17.9813 30.3983 16.5307 29.161 15.336C27.9237 14.1413 26.4303 13.2453 24.681 12.648C22.9317 12.008 20.969 11.688 18.793 11.688H10.089V1.896H18.217C22.441 1.896 26.1317 2.51466 29.289 3.752C32.4463 4.98933 35.0917 6.67466 37.225 8.808C39.3583 10.9413 40.937 13.3947 41.961 16.168C43.0277 18.8987 43.561 21.7787 43.561 24.808V26.216C43.561 29.032 43.0277 31.8267 41.961 34.6C40.937 37.3307 39.3583 39.8053 37.225 42.024C35.0917 44.2 32.4463 45.9493 29.289 47.272C26.1317 48.5947 22.441 49.256 18.217 49.256H10.089ZM0.873 49.256V1.896H11.369V49.256H0.873ZM50.873 49V2.28H68.089L85.689 40.488H87.865L86.585 41.64V2.28H96.441V49H79.097L61.497 10.792H59.321L60.601 9.64V49H50.873ZM123.192 50.216C118.968 50.216 115.405 49.5547 112.504 48.232C109.602 46.8667 107.405 45.032 105.911 42.728C104.418 40.3813 103.672 37.6933 103.672 34.664H113.848C113.848 35.8587 114.168 36.968 114.808 37.992C115.49 39.016 116.514 39.848 117.88 40.488C119.245 41.0853 121.016 41.384 123.192 41.384C125.154 41.384 126.797 41.128 128.12 40.616C129.442 40.104 130.445 39.4 131.128 38.504C131.81 37.5653 132.152 36.4987 132.152 35.304C132.152 33.8107 131.512 32.6373 130.232 31.784C128.952 30.888 126.882 30.312 124.024 30.056L120.503 29.736C115.853 29.352 112.141 27.9013 109.368 25.384C106.594 22.8667 105.208 19.5387 105.208 15.4C105.208 12.4133 105.912 9.832 107.32 7.656C108.77 5.48 110.776 3.816 113.336 2.664C115.896 1.46933 118.925 0.871998 122.424 0.871998C126.093 0.871998 129.229 1.512 131.832 2.792C134.477 4.02933 136.504 5.8 137.912 8.104C139.32 10.3653 140.024 13.032 140.024 16.104H129.784C129.784 14.952 129.506 13.9067 128.952 12.968C128.397 11.9867 127.565 11.1973 126.456 10.6C125.389 10.0027 124.045 9.704 122.424 9.704C120.888 9.704 119.586 9.96 118.52 10.472C117.496 10.984 116.728 11.688 116.216 12.584C115.704 13.4373 115.448 14.376 115.448 15.4C115.448 16.7227 115.917 17.8747 116.856 18.856C117.794 19.8373 119.33 20.4133 121.464 20.584L125.048 20.904C128.461 21.2027 131.469 21.9493 134.072 23.144C136.674 24.296 138.701 25.896 140.152 27.944C141.645 29.9493 142.392 32.4027 142.392 35.304C142.392 38.2907 141.602 40.9147 140.024 43.176C138.488 45.3947 136.29 47.1227 133.432 48.36C130.573 49.5973 127.16 50.216 123.192 50.216Z" fill="white"/>
</svg>
